<svg width="97" height="32" viewBox="0 0 97 32" fill="none" xmlns="http://www.w3.org/2000/svg">
<rect width="97" height="32" rx="7" fill="white"/>
<path d="M28.543 10.8568C28.5576 11.0685 28.5576 11.2802 28.5576 11.4938C28.5576 18.0027 23.6045 25.5095 14.5476 25.5095V25.5056C11.8722 25.5095 9.25229 24.7428 7 23.2973C7.38903 23.3441 7.78001 23.3675 8.17197 23.3685C10.3892 23.3704 12.543 22.6262 14.2873 21.2557C12.1803 21.2157 10.3326 19.8414 9.68714 17.8349C10.4252 17.9774 11.1857 17.9481 11.9102 17.7501C9.61304 17.2858 7.96039 15.2667 7.96039 12.9218V12.8594C8.64485 13.2408 9.41121 13.4524 10.1951 13.4758C8.03157 12.0293 7.36466 9.14987 8.67118 6.89861C11.1711 9.97604 14.8596 11.8469 18.8191 12.0449C18.4223 10.334 18.9644 8.54121 20.2436 7.33852C22.2268 5.47353 25.3459 5.56912 27.2101 7.55214C28.3129 7.33462 29.3698 6.92983 30.337 6.35628C29.9694 7.49654 29.2001 8.46513 28.1725 9.08061C29.1484 8.96551 30.102 8.7041 31 8.30516C30.3389 9.29618 29.5063 10.1594 28.543 10.8568Z" fill="#1D9BF0"/>
<path d="M42.237 20C42.1417 20 42.0637 19.9697 42.003 19.909C41.9423 19.8483 41.912 19.7703 41.912 19.675V12.941H39.598C39.5027 12.941 39.4247 12.9107 39.364 12.85C39.3033 12.7807 39.273 12.7027 39.273 12.616V11.225C39.273 11.1297 39.3033 11.0517 39.364 10.991C39.4247 10.9303 39.5027 10.9 39.598 10.9H46.592C46.6873 10.9 46.7653 10.9303 46.826 10.991C46.8867 11.0517 46.917 11.1297 46.917 11.225V12.616C46.917 12.7027 46.8867 12.7807 46.826 12.85C46.7653 12.9107 46.6873 12.941 46.592 12.941H44.278V19.675C44.278 19.7703 44.2477 19.8483 44.187 19.909C44.1263 19.9697 44.0483 20 43.953 20H42.237ZM49.3327 20C49.2027 20 49.1073 19.9697 49.0467 19.909C48.986 19.8483 48.9383 19.7703 48.9037 19.675L47.0317 13.656C47.0143 13.6127 47.0057 13.5693 47.0057 13.526C47.0057 13.448 47.036 13.383 47.0967 13.331C47.1573 13.2703 47.2267 13.24 47.3047 13.24H48.6437C48.7563 13.24 48.843 13.2703 48.9037 13.331C48.973 13.3917 49.0163 13.4523 49.0337 13.513L50.1257 17.231L51.2957 13.526C51.313 13.4653 51.352 13.4047 51.4127 13.344C51.482 13.2747 51.5773 13.24 51.6987 13.24H52.5567C52.678 13.24 52.769 13.2747 52.8297 13.344C52.899 13.4047 52.9423 13.4653 52.9597 13.526L54.1297 17.231L55.2217 13.513C55.239 13.4523 55.278 13.3917 55.3387 13.331C55.408 13.2703 55.499 13.24 55.6117 13.24H56.9507C57.0287 13.24 57.0937 13.2703 57.1457 13.331C57.2063 13.383 57.2367 13.448 57.2367 13.526C57.2367 13.5693 57.2323 13.6127 57.2237 13.656L55.3517 19.675C55.3257 19.7703 55.278 19.8483 55.2087 19.909C55.148 19.9697 55.0527 20 54.9227 20H53.7527C53.6313 20 53.536 19.9697 53.4667 19.909C53.3973 19.8483 53.3497 19.7703 53.3237 19.675L52.1277 16.113L50.9317 19.675C50.9057 19.7703 50.858 19.8483 50.7887 19.909C50.7193 19.9697 50.624 20 50.5027 20H49.3327ZM58.6652 20C58.5699 20 58.4919 19.9697 58.4312 19.909C58.3706 19.8483 58.3402 19.7703 58.3402 19.675V13.565C58.3402 13.4697 58.3706 13.3917 58.4312 13.331C58.4919 13.2703 58.5699 13.24 58.6652 13.24H60.1992C60.2859 13.24 60.3596 13.2703 60.4202 13.331C60.4896 13.3917 60.5242 13.4697 60.5242 13.565V19.675C60.5242 19.7703 60.4896 19.8483 60.4202 19.909C60.3596 19.9697 60.2859 20 60.1992 20H58.6652ZM58.6522 12.265C58.5569 12.265 58.4789 12.2347 58.4182 12.174C58.3576 12.1133 58.3272 12.0353 58.3272 11.94V10.783C58.3272 10.6877 58.3576 10.6097 58.4182 10.549C58.4789 10.4797 58.5569 10.445 58.6522 10.445H60.1992C60.2946 10.445 60.3726 10.4797 60.4332 10.549C60.5026 10.6097 60.5372 10.6877 60.5372 10.783V11.94C60.5372 12.0353 60.5026 12.1133 60.4332 12.174C60.3726 12.2347 60.2946 12.265 60.1992 12.265H58.6522ZM65.5053 20C64.9506 20 64.4696 19.9133 64.0623 19.74C63.6636 19.558 63.3559 19.2807 63.1393 18.908C62.9226 18.5267 62.8143 18.037 62.8143 17.439V14.943H61.8003C61.7049 14.943 61.6226 14.9127 61.5533 14.852C61.4926 14.7913 61.4623 14.7133 61.4623 14.618V13.565C61.4623 13.4697 61.4926 13.3917 61.5533 13.331C61.6226 13.2703 61.7049 13.24 61.8003 13.24H62.8143V11.095C62.8143 10.9997 62.8446 10.9217 62.9053 10.861C62.9746 10.8003 63.0526 10.77 63.1393 10.77H64.6473C64.7426 10.77 64.8206 10.8003 64.8813 10.861C64.9419 10.9217 64.9723 10.9997 64.9723 11.095V13.24H66.5973C66.6926 13.24 66.7706 13.2703 66.8313 13.331C66.8919 13.3917 66.9223 13.4697 66.9223 13.565V14.618C66.9223 14.7133 66.8919 14.7913 66.8313 14.852C66.7706 14.9127 66.6926 14.943 66.5973 14.943H64.9723V17.257C64.9723 17.5517 65.0286 17.7857 65.1413 17.959C65.2539 18.1323 65.4446 18.219 65.7133 18.219H66.7143C66.8096 18.219 66.8876 18.2493 66.9483 18.31C67.0089 18.3707 67.0393 18.4487 67.0393 18.544V19.675C67.0393 19.7703 67.0089 19.8483 66.9483 19.909C66.8876 19.9697 66.8096 20 66.7143 20H65.5053ZM71.5736 20C71.019 20 70.538 19.9133 70.1306 19.74C69.732 19.558 69.4243 19.2807 69.2076 18.908C68.991 18.5267 68.8826 18.037 68.8826 17.439V14.943H67.8686C67.7733 14.943 67.691 14.9127 67.6216 14.852C67.561 14.7913 67.5306 14.7133 67.5306 14.618V13.565C67.5306 13.4697 67.561 13.3917 67.6216 13.331C67.691 13.2703 67.7733 13.24 67.8686 13.24H68.8826V11.095C68.8826 10.9997 68.913 10.9217 68.9736 10.861C69.043 10.8003 69.121 10.77 69.2076 10.77H70.7156C70.811 10.77 70.889 10.8003 70.9496 10.861C71.0103 10.9217 71.0406 10.9997 71.0406 11.095V13.24H72.6656C72.761 13.24 72.839 13.2703 72.8996 13.331C72.9603 13.3917 72.9906 13.4697 72.9906 13.565V14.618C72.9906 14.7133 72.9603 14.7913 72.8996 14.852C72.839 14.9127 72.761 14.943 72.6656 14.943H71.0406V17.257C71.0406 17.5517 71.097 17.7857 71.2096 17.959C71.3223 18.1323 71.513 18.219 71.7816 18.219H72.7826C72.878 18.219 72.956 18.2493 73.0166 18.31C73.0773 18.3707 73.1076 18.4487 73.1076 18.544V19.675C73.1076 19.7703 73.0773 19.8483 73.0166 19.909C72.956 19.9697 72.878 20 72.7826 20H71.5736ZM77.304 20.13C76.2813 20.13 75.4667 19.8527 74.86 19.298C74.2533 18.7433 73.937 17.92 73.911 16.828C73.911 16.7673 73.911 16.6893 73.911 16.594C73.911 16.4987 73.911 16.425 73.911 16.373C73.937 15.6883 74.0887 15.1033 74.366 14.618C74.652 14.124 75.042 13.7513 75.536 13.5C76.0387 13.24 76.6237 13.11 77.291 13.11C78.0537 13.11 78.682 13.2617 79.176 13.565C79.6787 13.8683 80.0557 14.28 80.307 14.8C80.5583 15.32 80.684 15.9137 80.684 16.581V16.893C80.684 16.9883 80.6493 17.0663 80.58 17.127C80.5193 17.1877 80.4457 17.218 80.359 17.218H76.199C76.199 17.2267 76.199 17.2397 76.199 17.257C76.199 17.2743 76.199 17.2917 76.199 17.309C76.2077 17.5603 76.251 17.79 76.329 17.998C76.407 18.206 76.5283 18.3707 76.693 18.492C76.8577 18.6133 77.057 18.674 77.291 18.674C77.4643 18.674 77.6073 18.648 77.72 18.596C77.8413 18.5353 77.941 18.4703 78.019 18.401C78.097 18.323 78.1577 18.258 78.201 18.206C78.279 18.1193 78.3397 18.0673 78.383 18.05C78.435 18.024 78.513 18.011 78.617 18.011H80.229C80.3157 18.011 80.385 18.037 80.437 18.089C80.4977 18.1323 80.5237 18.1973 80.515 18.284C80.5063 18.4313 80.4327 18.609 80.294 18.817C80.1553 19.025 79.9517 19.233 79.683 19.441C79.423 19.6403 79.0937 19.805 78.695 19.935C78.2963 20.065 77.8327 20.13 77.304 20.13ZM76.199 15.931H78.396V15.905C78.396 15.6277 78.3527 15.385 78.266 15.177C78.188 14.969 78.0623 14.8087 77.889 14.696C77.7243 14.5833 77.525 14.527 77.291 14.527C77.057 14.527 76.8577 14.5833 76.693 14.696C76.537 14.8087 76.4157 14.969 76.329 15.177C76.2423 15.385 76.199 15.6277 76.199 15.905V15.931ZM82.2277 20C82.1324 20 82.0544 19.9697 81.9937 19.909C81.9331 19.8483 81.9027 19.7703 81.9027 19.675V13.565C81.9027 13.4783 81.9331 13.4047 81.9937 13.344C82.0544 13.2747 82.1324 13.24 82.2277 13.24H83.7227C83.8181 13.24 83.8961 13.2747 83.9567 13.344C84.0174 13.4047 84.0477 13.4783 84.0477 13.565V14.085C84.2817 13.8163 84.5591 13.6083 84.8797 13.461C85.2091 13.3137 85.5774 13.24 85.9847 13.24H86.5567C86.6434 13.24 86.7171 13.2703 86.7777 13.331C86.8471 13.3917 86.8817 13.4697 86.8817 13.565V14.904C86.8817 14.9907 86.8471 15.0687 86.7777 15.138C86.7171 15.1987 86.6434 15.229 86.5567 15.229H85.2957C84.9404 15.229 84.6631 15.3287 84.4637 15.528C84.2731 15.7187 84.1777 15.9917 84.1777 16.347V19.675C84.1777 19.7703 84.1431 19.8483 84.0737 19.909C84.0131 19.9697 83.9351 20 83.8397 20H82.2277Z" fill="black"/>
</svg>
