<svg width="136" height="24" viewBox="0 0 136 24" fill="none" xmlns="http://www.w3.org/2000/svg">
<path fill-rule="evenodd" clip-rule="evenodd" d="M67 12.5C67 15.84 64.57 18 61.12 18C57.67 18 55.24 15.84 55.24 12.5C55.24 9.16 57.67 7 61.12 7C64.57 7 67 9.16 67 12.5ZM57.78 12.5C57.78 14.57 59.13 16 61.12 16C63.11 16 64.46 14.57 64.46 12.5C64.46 10.43 63.11 9.05 61.12 9.05C59.13 9.05 57.78 10.43 57.78 12.5ZM40.75 12.29C41.7 11.85 42.31 11.11 42.31 9.96C42.31 8.23 40.73 7 38.44 7H33.17V18H38.67C41.04 18 42.69 16.71 42.69 14.95C42.69 13.62 41.82 12.63 40.75 12.29ZM35.6 9.01H38.43C39.28 9.01 39.87 9.51 39.87 10.21C39.87 10.91 39.27 11.41 38.43 11.41H35.6V9V9.01ZM38.67 16H35.61V13.3H38.67C39.63 13.3 40.26 13.85 40.26 14.66C40.26 15.46 39.63 15.99 38.67 15.99V16ZM51.84 18H55.03L49.97 12.29L54.61 7H51.71L48.03 11.27H47.43V7H45V18H47.44V13.62H48.03L51.83 18H51.84ZM76.47 7V11.34H71.54V7H69.1V18H71.53V13.56H76.46V18H78.89V7H76.46H76.47ZM86.9 18H84.46V9.22H80.66V7H90.7V9.22H86.9V18ZM96.6 7C94.46 7 92.58 7.89 92.03 9.8L94.27 10.17C94.4821 9.77587 94.801 9.44952 95.1901 9.22841C95.5793 9.00731 96.0228 8.90042 96.47 8.92C97.8 8.92 98.59 9.82 98.69 11.25H96.32C93.09 11.25 91.48 12.67 91.48 14.7C91.48 16.75 93.07 18 95.31 18C97.11 18 98.31 17.18 98.84 16.27L99.34 18H101.14V11.82C101.14 8.63 99.41 7 96.6 7ZM95.88 16.16C94.69 16.16 93.93 15.55 93.93 14.59C93.93 13.75 94.55 13.16 96.41 13.16H98.71C98.71 14.96 97.57 16.16 95.88 16.16ZM113.73 18H110.53L106.73 13.62H106.13V18H103.71V7H106.14V11.27H106.73L110.4 7H113.3L108.67 12.29L113.72 18H113.73ZM118 18H120.44V9.22H124.24V7H114.2V9.22H118V18ZM130.3 7C133.63 7 136 9.2 136 12.37C136 12.67 135.98 12.92 135.96 13.16H127.12C127.35 14.85 128.58 15.99 130.44 15.99C131.73 15.99 132.74 15.44 133.27 14.66L135.56 15.04C134.73 17.14 132.58 18 130.29 18C126.95 18 124.58 15.82 124.58 12.5C124.58 9.18 126.95 7 130.29 7H130.3ZM133.36 11.25C133.178 10.5834 132.775 9.99815 132.217 9.58959C131.66 9.18104 130.981 8.97323 130.29 9C129.605 8.97381 128.932 9.18275 128.383 9.59208C127.834 10.0014 127.441 10.5865 127.27 11.25H133.36Z" fill="black"/>
<path d="M11.5 24H12.5C17.94 24 20.65 24 22.33 22.32C24 20.64 24 17.92 24 12.5V11.48C24 6.08 24 3.36 22.33 1.68C20.65 0 17.93 0 12.5 0H11.5C6.06 0 3.35 0 1.67 1.68C0 3.36 0 6.08 0 11.5V12.52C0 17.92 0 20.64 1.68 22.32C3.36 24 6.08 24 11.5 24Z" fill="#0077FF"/>
<path d="M12.77 17.29C7.29999 17.29 4.17999 13.54 4.04999 7.3H6.78999C6.87999 11.88 8.89999 13.82 10.5 14.22V7.3H13.08V11.25C14.66 11.08 16.32 9.28 16.88 7.3H19.46C19.249 8.32689 18.8283 9.29918 18.2244 10.1561C17.6204 11.013 16.8461 11.736 15.95 12.28C16.9503 12.7771 17.8339 13.4806 18.5423 14.3442C19.2508 15.2078 19.768 16.2118 20.06 17.29H17.22C16.9579 16.3535 16.4253 15.5152 15.6888 14.8801C14.9523 14.2451 14.0448 13.8415 13.08 13.72V17.29H12.77Z" fill="white"/>
</svg>
